<svg width="92" height="92" viewBox="0 0 92 92" fill="none" xmlns="http://www.w3.org/2000/svg">
<path d="M19.1667 19.1667H42.1667C44.275 19.1667 46 17.4417 46 15.3333C46 13.225 44.275 11.5 42.1667 11.5H19.1667C14.95 11.5 11.5 14.95 11.5 19.1667V72.8333C11.5 77.05 14.95 80.5 19.1667 80.5H42.1667C44.275 80.5 46 78.775 46 76.6667C46 74.5583 44.275 72.8333 42.1667 72.8333H19.1667V19.1667Z" fill="#DB5A62"/>
<path d="M79.1583 44.6585L68.4633 33.9634C67.2367 32.7368 65.1667 33.5801 65.1667 35.3051V42.1668H38.3333C36.225 42.1668 34.5 43.8918 34.5 46.0001C34.5 48.1085 36.225 49.8335 38.3333 49.8335H65.1667V56.6951C65.1667 58.4201 67.2367 59.2635 68.425 58.0368L79.12 47.3418C79.8867 46.6135 79.8867 45.3868 79.1583 44.6585Z" fill="#DB5A62"/>
</svg>
