<svg width="92" height="92" viewBox="0 0 92 92" fill="none" xmlns="http://www.w3.org/2000/svg">
<path d="M46 7.66663C24.84 7.66663 7.66669 24.84 7.66669 46C7.66669 67.16 24.84 84.3333 46 84.3333C67.16 84.3333 84.3334 67.16 84.3334 46C84.3334 24.84 67.16 7.66663 46 7.66663ZM61.3334 49.8333H49.8334V61.3333C49.8334 63.4416 48.1084 65.1666 46 65.1666C43.8917 65.1666 42.1667 63.4416 42.1667 61.3333V49.8333H30.6667C28.5584 49.8333 26.8334 48.1083 26.8334 46C26.8334 43.8916 28.5584 42.1666 30.6667 42.1666H42.1667V30.6666C42.1667 28.5583 43.8917 26.8333 46 26.8333C48.1084 26.8333 49.8334 28.5583 49.8334 30.6666V42.1666H61.3334C63.4417 42.1666 65.1667 43.8916 65.1667 46C65.1667 48.1083 63.4417 49.8333 61.3334 49.8333Z" fill="#DB5A62"/>
</svg>
