<svg width="92" height="92" viewBox="0 0 92 92" fill="none" xmlns="http://www.w3.org/2000/svg">
<path d="M67.4283 13.7617C65.9717 12.305 64.0167 11.5 61.985 11.5H19.1667C14.9117 11.5 11.5 14.95 11.5 19.1667V72.8333C11.5 77.05 14.95 80.5 19.1667 80.5H72.8333C77.05 80.5 80.5 77.05 80.5 72.8333V30.015C80.5 27.9833 79.695 26.0283 78.2383 24.61L67.4283 13.7617ZM46 72.8333C39.6367 72.8333 34.5 67.6967 34.5 61.3333C34.5 54.97 39.6367 49.8333 46 49.8333C52.3633 49.8333 57.5 54.97 57.5 61.3333C57.5 67.6967 52.3633 72.8333 46 72.8333ZM49.8333 34.5H26.8333C22.6167 34.5 19.1667 31.05 19.1667 26.8333C19.1667 22.6167 22.6167 19.1667 26.8333 19.1667H49.8333C54.05 19.1667 57.5 22.6167 57.5 26.8333C57.5 31.05 54.05 34.5 49.8333 34.5Z" fill="#394800"/>
</svg>
