<svg width="92" height="92" viewBox="0 0 92 92" fill="none" xmlns="http://www.w3.org/2000/svg">
<path d="M23 72.8333C23 77.05 26.45 80.5 30.6667 80.5H61.3333C65.55 80.5 69 77.05 69 72.8333V34.5C69 30.2833 65.55 26.8333 61.3333 26.8333H30.6667C26.45 26.8333 23 30.2833 23 34.5V72.8333ZM69 15.3333H59.4167L56.695 12.6117C56.005 11.9217 55.0083 11.5 54.0117 11.5H37.9883C36.9917 11.5 35.995 11.9217 35.305 12.6117L32.5833 15.3333H23C20.8917 15.3333 19.1667 17.0583 19.1667 19.1667C19.1667 21.275 20.8917 23 23 23H69C71.1083 23 72.8333 21.275 72.8333 19.1667C72.8333 17.0583 71.1083 15.3333 69 15.3333Z" fill="#DB5A62"/>
</svg>
