<svg width="92" height="92" viewBox="0 0 92 92" fill="none" xmlns="http://www.w3.org/2000/svg">
<path d="M46 7.66663C24.8017 7.66663 7.66666 24.8016 7.66666 46C7.66666 67.1983 24.8017 84.3333 46 84.3333C67.1983 84.3333 84.3333 67.1983 84.3333 46C84.3333 24.8016 67.1983 7.66663 46 7.66663ZM62.4833 62.4833C60.9883 63.9783 58.5733 63.9783 57.0783 62.4833L46 51.405L34.9217 62.4833C33.4267 63.9783 31.0117 63.9783 29.5167 62.4833C28.0217 60.9883 28.0217 58.5733 29.5167 57.0783L40.595 46L29.5167 34.9216C28.0217 33.4266 28.0217 31.0116 29.5167 29.5166C31.0117 28.0216 33.4267 28.0216 34.9217 29.5166L46 40.595L57.0783 29.5166C58.5733 28.0216 60.9883 28.0216 62.4833 29.5166C63.9783 31.0116 63.9783 33.4266 62.4833 34.9216L51.405 46L62.4833 57.0783C63.94 58.535 63.94 60.9883 62.4833 62.4833Z" fill="#E4D5D9"/>
</svg>
